<svg width="186" height="78" viewBox="0 0 186 78" fill="none" xmlns="http://www.w3.org/2000/svg">
<path d="M165.555 19.0797L142 50.7239L147.615 54.9037L185.373 4.17977L165.555 19.0797Z" fill="#2E77FF"/>
<path d="M22.6234 58.0101L51.4814 25.6598L46.2578 21L7.15256e-07 72.8557L22.6234 58.0101Z" fill="#2E77FF"/>
<path d="M28.5304 20.6829C28.8079 20.2794 29.3112 20 29.7607 20H163.5H183.175C183.871 20 184.102 20.6448 183.625 21.2528L156.054 56.3897C155.766 56.7563 155.296 57 154.877 57H83.0594H4.87403C4.21303 57 3.96289 56.4132 4.37092 55.8198L28.5304 20.6829Z" fill="#2E77FF"/>
<path d="M62.108 34.2898H59.983C59.9224 33.9413 59.8106 33.6326 59.6477 33.3636C59.4849 33.0909 59.2822 32.8598 59.0398 32.6705C58.7974 32.4811 58.5208 32.339 58.2102 32.2443C57.9034 32.1458 57.572 32.0966 57.2159 32.0966C56.5833 32.0966 56.0227 32.2557 55.5341 32.5739C55.0455 32.8883 54.6629 33.3504 54.3864 33.9602C54.1099 34.5663 53.9716 35.3068 53.9716 36.1818C53.9716 37.072 54.1099 37.822 54.3864 38.4318C54.6667 39.0379 55.0493 39.4962 55.5341 39.8068C56.0227 40.1136 56.5814 40.267 57.2102 40.267C57.5587 40.267 57.8845 40.2216 58.1875 40.1307C58.4943 40.036 58.7689 39.8977 59.0114 39.7159C59.2576 39.5341 59.464 39.3106 59.6307 39.0455C59.8011 38.7803 59.9186 38.4773 59.983 38.1364L62.108 38.1477C62.0284 38.7008 61.8561 39.2197 61.5909 39.7045C61.3296 40.1894 60.9868 40.6174 60.5625 40.9886C60.1383 41.3561 59.6421 41.6439 59.0739 41.8523C58.5057 42.0568 57.875 42.1591 57.1818 42.1591C56.1591 42.1591 55.2462 41.9223 54.4432 41.4489C53.6402 40.9754 53.0076 40.2917 52.5455 39.3977C52.0833 38.5038 51.8523 37.4318 51.8523 36.1818C51.8523 34.928 52.0852 33.8561 52.5511 32.9659C53.0171 32.072 53.6515 31.3883 54.4546 30.9148C55.2576 30.4413 56.1667 30.2045 57.1818 30.2045C57.8296 30.2045 58.4318 30.2955 58.9886 30.4773C59.5455 30.6591 60.0417 30.9261 60.4773 31.2784C60.9129 31.6269 61.2708 32.0549 61.5511 32.5625C61.8352 33.0663 62.0208 33.642 62.108 34.2898ZM67.7543 42.1705C66.902 42.1705 66.1634 41.983 65.5384 41.608C64.9134 41.233 64.4285 40.7083 64.0838 40.0341C63.7429 39.3598 63.5725 38.572 63.5725 37.6705C63.5725 36.7689 63.7429 35.9792 64.0838 35.3011C64.4285 34.6231 64.9134 34.0966 65.5384 33.7216C66.1634 33.3466 66.902 33.1591 67.7543 33.1591C68.6065 33.1591 69.3452 33.3466 69.9702 33.7216C70.5952 34.0966 71.0781 34.6231 71.419 35.3011C71.7637 35.9792 71.9361 36.7689 71.9361 37.6705C71.9361 38.572 71.7637 39.3598 71.419 40.0341C71.0781 40.7083 70.5952 41.233 69.9702 41.608C69.3452 41.983 68.6065 42.1705 67.7543 42.1705ZM67.7656 40.5227C68.2278 40.5227 68.6141 40.3958 68.9247 40.142C69.2353 39.8845 69.4664 39.5398 69.6179 39.108C69.7732 38.6761 69.8509 38.1951 69.8509 37.6648C69.8509 37.1307 69.7732 36.6477 69.6179 36.2159C69.4664 35.7803 69.2353 35.4337 68.9247 35.1761C68.6141 34.9186 68.2278 34.7898 67.7656 34.7898C67.2921 34.7898 66.8982 34.9186 66.5838 35.1761C66.2732 35.4337 66.0403 35.7803 65.885 36.2159C65.7334 36.6477 65.6577 37.1307 65.6577 37.6648C65.6577 38.1951 65.7334 38.6761 65.885 39.108C66.0403 39.5398 66.2732 39.8845 66.5838 40.142C66.8982 40.3958 67.2921 40.5227 67.7656 40.5227ZM75.7386 36.8864V42H73.6818V33.2727H75.6477V34.7557H75.75C75.9508 34.267 76.2708 33.8788 76.7102 33.5909C77.1534 33.303 77.7008 33.1591 78.3523 33.1591C78.9546 33.1591 79.4792 33.2879 79.9261 33.5455C80.3769 33.803 80.7254 34.1761 80.9716 34.6648C81.2216 35.1534 81.3447 35.7462 81.3409 36.4432V42H79.2841V36.7614C79.2841 36.178 79.1326 35.7216 78.8296 35.392C78.5303 35.0625 78.1155 34.8977 77.5852 34.8977C77.2254 34.8977 76.9053 34.9773 76.625 35.1364C76.3485 35.2917 76.1307 35.517 75.9716 35.8125C75.8163 36.108 75.7386 36.4659 75.7386 36.8864ZM87.7898 33.2727V34.8636H82.7727V33.2727H87.7898ZM84.0114 31.1818H86.0682V39.375C86.0682 39.6515 86.1099 39.8636 86.1932 40.0114C86.2803 40.1553 86.3939 40.2538 86.5341 40.3068C86.6743 40.3598 86.8296 40.3864 87 40.3864C87.1288 40.3864 87.2462 40.3769 87.3523 40.358C87.4621 40.339 87.5455 40.322 87.6023 40.3068L87.9489 41.9148C87.839 41.9527 87.6818 41.9943 87.4773 42.0398C87.2765 42.0852 87.0303 42.1117 86.7386 42.1193C86.2235 42.1345 85.7595 42.0568 85.3466 41.8864C84.9337 41.7121 84.6061 41.4432 84.3636 41.0795C84.125 40.7159 84.0076 40.2614 84.0114 39.7159V31.1818ZM92.0213 42.1761C91.4683 42.1761 90.9702 42.0777 90.527 41.8807C90.0876 41.6799 89.7391 41.3845 89.4815 40.9943C89.2278 40.6042 89.1009 40.1231 89.1009 39.5511C89.1009 39.0587 89.1918 38.6515 89.3736 38.3295C89.5554 38.0076 89.8035 37.75 90.1179 37.5568C90.4323 37.3636 90.7865 37.2178 91.1804 37.1193C91.5781 37.017 91.9891 36.9432 92.4134 36.8977C92.9247 36.8447 93.3395 36.7973 93.6577 36.7557C93.9759 36.7102 94.2069 36.642 94.3509 36.5511C94.4986 36.4564 94.5725 36.3106 94.5725 36.1136V36.0795C94.5725 35.6515 94.4456 35.3201 94.1918 35.0852C93.938 34.8504 93.5725 34.733 93.0952 34.733C92.5914 34.733 92.1918 34.8428 91.8963 35.0625C91.6046 35.2822 91.4077 35.5417 91.3054 35.8409L89.385 35.5682C89.5365 35.0379 89.7865 34.5947 90.135 34.2386C90.4834 33.8788 90.9096 33.6098 91.4134 33.4318C91.9171 33.25 92.474 33.1591 93.0838 33.1591C93.5043 33.1591 93.9228 33.2083 94.3395 33.3068C94.7562 33.4053 95.1368 33.5682 95.4815 33.7955C95.8262 34.0189 96.1028 34.3239 96.3111 34.7102C96.5232 35.0966 96.6293 35.5795 96.6293 36.1591V42H94.652V40.8011H94.5838C94.4588 41.0436 94.2827 41.2708 94.0554 41.483C93.8319 41.6913 93.5497 41.8598 93.2088 41.9886C92.8717 42.1136 92.4759 42.1761 92.0213 42.1761ZM92.5554 40.6648C92.9683 40.6648 93.3262 40.5833 93.6293 40.4205C93.9323 40.2538 94.1653 40.0341 94.3281 39.7614C94.4948 39.4886 94.5781 39.1913 94.5781 38.8693V37.8409C94.5137 37.8939 94.4039 37.9432 94.2486 37.9886C94.0971 38.0341 93.9266 38.0739 93.7372 38.108C93.5478 38.142 93.3603 38.1723 93.1747 38.1989C92.9891 38.2254 92.8281 38.2481 92.6918 38.267C92.385 38.3087 92.1103 38.3769 91.8679 38.4716C91.6255 38.5663 91.4342 38.6989 91.294 38.8693C91.1539 39.036 91.0838 39.2519 91.0838 39.517C91.0838 39.8958 91.2221 40.1818 91.4986 40.375C91.7751 40.5682 92.1274 40.6648 92.5554 40.6648ZM102.504 42.1705C101.633 42.1705 100.885 41.9792 100.26 41.5966C99.6387 41.214 99.1596 40.6856 98.8225 40.0114C98.4891 39.3333 98.3225 38.553 98.3225 37.6705C98.3225 36.7841 98.4929 36.0019 98.8338 35.3239C99.1747 34.642 99.6558 34.1117 100.277 33.733C100.902 33.3504 101.641 33.1591 102.493 33.1591C103.201 33.1591 103.828 33.2898 104.374 33.5511C104.923 33.8087 105.36 34.1742 105.686 34.6477C106.012 35.1174 106.197 35.6667 106.243 36.2955H104.277C104.197 35.875 104.008 35.5246 103.709 35.2443C103.413 34.9602 103.018 34.8182 102.521 34.8182C102.101 34.8182 101.732 34.9318 101.413 35.1591C101.095 35.3826 100.847 35.7045 100.669 36.125C100.495 36.5455 100.408 37.0492 100.408 37.6364C100.408 38.2311 100.495 38.7424 100.669 39.1705C100.843 39.5947 101.088 39.9223 101.402 40.1534C101.72 40.3807 102.093 40.4943 102.521 40.4943C102.824 40.4943 103.095 40.4375 103.334 40.3239C103.576 40.2064 103.779 40.0379 103.942 39.8182C104.105 39.5985 104.216 39.3314 104.277 39.017H106.243C106.194 39.6345 106.012 40.1818 105.697 40.6591C105.383 41.1326 104.955 41.5038 104.413 41.7727C103.872 42.0379 103.235 42.1705 102.504 42.1705ZM112.29 33.2727V34.8636H107.273V33.2727H112.29ZM108.511 31.1818H110.568V39.375C110.568 39.6515 110.61 39.8636 110.693 40.0114C110.78 40.1553 110.894 40.2538 111.034 40.3068C111.174 40.3598 111.33 40.3864 111.5 40.3864C111.629 40.3864 111.746 40.3769 111.852 40.358C111.962 40.339 112.045 40.322 112.102 40.3068L112.449 41.9148C112.339 41.9527 112.182 41.9943 111.977 42.0398C111.777 42.0852 111.53 42.1117 111.239 42.1193C110.723 42.1345 110.259 42.0568 109.847 41.8864C109.434 41.7121 109.106 41.4432 108.864 41.0795C108.625 40.7159 108.508 40.2614 108.511 39.7159V31.1818ZM121.896 34.0795C121.802 33.7727 121.671 33.4981 121.504 33.2557C121.341 33.0095 121.144 32.7992 120.913 32.625C120.686 32.4508 120.425 32.3201 120.129 32.233C119.834 32.142 119.512 32.0966 119.163 32.0966C118.538 32.0966 117.982 32.2538 117.493 32.5682C117.004 32.8826 116.62 33.3447 116.339 33.9545C116.063 34.5606 115.925 35.2992 115.925 36.1705C115.925 37.0492 116.063 37.7936 116.339 38.4034C116.616 39.0133 117 39.4773 117.493 39.7955C117.985 40.1098 118.557 40.267 119.209 40.267C119.8 40.267 120.311 40.1534 120.743 39.9261C121.179 39.6989 121.514 39.3769 121.749 38.9602C121.983 38.5398 122.101 38.0473 122.101 37.483L122.578 37.5568H119.419V35.9091H124.141V37.3068C124.141 38.303 123.929 39.1648 123.504 39.892C123.08 40.6193 122.497 41.1799 121.754 41.5739C121.012 41.964 120.16 42.1591 119.197 42.1591C118.125 42.1591 117.184 41.9186 116.374 41.4375C115.567 40.9527 114.936 40.2652 114.482 39.375C114.031 38.4811 113.805 37.4205 113.805 36.1932C113.805 35.2538 113.938 34.4148 114.203 33.6761C114.472 32.9375 114.847 32.3106 115.328 31.7955C115.809 31.2765 116.374 30.8826 117.021 30.6136C117.669 30.3409 118.374 30.2045 119.135 30.2045C119.779 30.2045 120.379 30.2992 120.936 30.4886C121.493 30.6742 121.987 30.9394 122.419 31.2841C122.855 31.6288 123.213 32.0379 123.493 32.5114C123.773 32.9848 123.957 33.5076 124.044 34.0795H121.896ZM129.895 42.1705C129.043 42.1705 128.304 41.983 127.679 41.608C127.054 41.233 126.569 40.7083 126.224 40.0341C125.884 39.3598 125.713 38.572 125.713 37.6705C125.713 36.7689 125.884 35.9792 126.224 35.3011C126.569 34.6231 127.054 34.0966 127.679 33.7216C128.304 33.3466 129.043 33.1591 129.895 33.1591C130.747 33.1591 131.486 33.3466 132.111 33.7216C132.736 34.0966 133.219 34.6231 133.56 35.3011C133.904 35.9792 134.077 36.7689 134.077 37.6705C134.077 38.572 133.904 39.3598 133.56 40.0341C133.219 40.7083 132.736 41.233 132.111 41.608C131.486 41.983 130.747 42.1705 129.895 42.1705ZM129.906 40.5227C130.368 40.5227 130.755 40.3958 131.065 40.142C131.376 39.8845 131.607 39.5398 131.759 39.108C131.914 38.6761 131.991 38.1951 131.991 37.6648C131.991 37.1307 131.914 36.6477 131.759 36.2159C131.607 35.7803 131.376 35.4337 131.065 35.1761C130.755 34.9186 130.368 34.7898 129.906 34.7898C129.433 34.7898 129.039 34.9186 128.724 35.1761C128.414 35.4337 128.181 35.7803 128.026 36.2159C127.874 36.6477 127.798 37.1307 127.798 37.6648C127.798 38.1951 127.874 38.6761 128.026 39.108C128.181 39.5398 128.414 39.8845 128.724 40.142C129.039 40.3958 129.433 40.5227 129.906 40.5227Z" fill="white"/>
</svg>
